<mxfile host="app.diagrams.net" modified="2024-04-06T16:22:39.248Z" agent="Mozilla/5.0 (Windows NT 10.0; Win64; x64) AppleWebKit/537.36 (KHTML, like Gecko) Chrome/123.0.0.0 Safari/537.36 Edg/123.0.0.0" etag="bptZbgNOkFWytmslKlxr" version="24.2.0" type="device">
  <diagram name="Página-1" id="b0JLvSZYDRT4Mgk-a0De">
    <mxGraphModel dx="2390" dy="1273" grid="0" gridSize="10" guides="1" tooltips="1" connect="1" arrows="1" fold="1" page="0" pageScale="1" pageWidth="827" pageHeight="1169" math="0" shadow="0">
      <root>
        <mxCell id="0" />
        <mxCell id="1" parent="0" />
        <mxCell id="a8AoU_n1B9u0T8RcCwbD-12" value="" style="rounded=0;orthogonalLoop=1;jettySize=auto;html=1;startArrow=none;startFill=0;endArrow=none;endFill=0;entryX=0;entryY=0.5;entryDx=0;entryDy=0;" parent="1" source="a8AoU_n1B9u0T8RcCwbD-1" target="a8AoU_n1B9u0T8RcCwbD-10" edge="1">
          <mxGeometry relative="1" as="geometry" />
        </mxCell>
        <mxCell id="a8AoU_n1B9u0T8RcCwbD-13" style="rounded=0;orthogonalLoop=1;jettySize=auto;html=1;startArrow=none;startFill=0;endArrow=none;endFill=0;entryX=0;entryY=0.5;entryDx=0;entryDy=0;" parent="1" source="a8AoU_n1B9u0T8RcCwbD-1" target="a8AoU_n1B9u0T8RcCwbD-9" edge="1">
          <mxGeometry relative="1" as="geometry" />
        </mxCell>
        <mxCell id="l3ynQuDQ4SoGXIZrlIy3-24" style="rounded=0;orthogonalLoop=1;jettySize=auto;html=1;entryX=0;entryY=0.5;entryDx=0;entryDy=0;endArrow=none;endFill=0;" parent="1" source="a8AoU_n1B9u0T8RcCwbD-1" target="l3ynQuDQ4SoGXIZrlIy3-20" edge="1">
          <mxGeometry relative="1" as="geometry" />
        </mxCell>
        <mxCell id="a8AoU_n1B9u0T8RcCwbD-1" value="Aluno" style="shape=umlActor;verticalLabelPosition=bottom;verticalAlign=top;html=1;outlineConnect=0;" parent="1" vertex="1">
          <mxGeometry x="40" y="274" width="30" height="60" as="geometry" />
        </mxCell>
        <mxCell id="l3ynQuDQ4SoGXIZrlIy3-1" style="rounded=0;orthogonalLoop=1;jettySize=auto;html=1;entryX=0;entryY=0.5;entryDx=0;entryDy=0;endArrow=none;endFill=0;" parent="1" source="a8AoU_n1B9u0T8RcCwbD-2" target="a8AoU_n1B9u0T8RcCwbD-16" edge="1">
          <mxGeometry relative="1" as="geometry">
            <mxPoint x="234" y="999" as="targetPoint" />
          </mxGeometry>
        </mxCell>
        <mxCell id="l3ynQuDQ4SoGXIZrlIy3-23" style="rounded=0;orthogonalLoop=1;jettySize=auto;html=1;entryX=0;entryY=0.5;entryDx=0;entryDy=0;endArrow=none;endFill=0;" parent="1" source="a8AoU_n1B9u0T8RcCwbD-2" target="l3ynQuDQ4SoGXIZrlIy3-21" edge="1">
          <mxGeometry relative="1" as="geometry" />
        </mxCell>
        <mxCell id="a8AoU_n1B9u0T8RcCwbD-2" value="Nutricionista" style="shape=umlActor;verticalLabelPosition=bottom;verticalAlign=top;html=1;outlineConnect=0;" parent="1" vertex="1">
          <mxGeometry x="40" y="539" width="30" height="60" as="geometry" />
        </mxCell>
        <mxCell id="l3ynQuDQ4SoGXIZrlIy3-16" style="rounded=0;orthogonalLoop=1;jettySize=auto;html=1;entryX=1;entryY=0.5;entryDx=0;entryDy=0;endArrow=none;endFill=0;" parent="1" source="a8AoU_n1B9u0T8RcCwbD-3" target="l3ynQuDQ4SoGXIZrlIy3-11" edge="1">
          <mxGeometry relative="1" as="geometry" />
        </mxCell>
        <mxCell id="l3ynQuDQ4SoGXIZrlIy3-22" style="rounded=0;orthogonalLoop=1;jettySize=auto;html=1;entryX=1;entryY=0.5;entryDx=0;entryDy=0;endArrow=none;endFill=0;" parent="1" source="a8AoU_n1B9u0T8RcCwbD-3" target="l3ynQuDQ4SoGXIZrlIy3-21" edge="1">
          <mxGeometry relative="1" as="geometry" />
        </mxCell>
        <mxCell id="a8AoU_n1B9u0T8RcCwbD-3" value="Personal Trainer" style="shape=umlActor;verticalLabelPosition=bottom;verticalAlign=top;html=1;outlineConnect=0;" parent="1" vertex="1">
          <mxGeometry x="523" y="539" width="30" height="60" as="geometry" />
        </mxCell>
        <mxCell id="a8AoU_n1B9u0T8RcCwbD-9" value="UC03 - Solicitar dieta" style="ellipse;whiteSpace=wrap;html=1;" parent="1" vertex="1">
          <mxGeometry x="230" y="255" width="120" height="50" as="geometry" />
        </mxCell>
        <mxCell id="a8AoU_n1B9u0T8RcCwbD-10" value="UC01 - Consultar dieta" style="ellipse;whiteSpace=wrap;html=1;" parent="1" vertex="1">
          <mxGeometry x="228" y="135" width="120" height="50" as="geometry" />
        </mxCell>
        <mxCell id="a8AoU_n1B9u0T8RcCwbD-11" value="UC02 - Selecionar produtos da dieta" style="ellipse;whiteSpace=wrap;html=1;" parent="1" vertex="1">
          <mxGeometry x="230" y="195" width="120" height="50" as="geometry" />
        </mxCell>
        <mxCell id="a8AoU_n1B9u0T8RcCwbD-14" style="rounded=0;orthogonalLoop=1;jettySize=auto;html=1;entryX=0;entryY=0.5;entryDx=0;entryDy=0;startArrow=none;startFill=0;endArrow=none;endFill=0;" parent="1" source="a8AoU_n1B9u0T8RcCwbD-1" target="a8AoU_n1B9u0T8RcCwbD-11" edge="1">
          <mxGeometry relative="1" as="geometry" />
        </mxCell>
        <mxCell id="a8AoU_n1B9u0T8RcCwbD-16" value="UC9 - Criar dieta" style="ellipse;whiteSpace=wrap;html=1;" parent="1" vertex="1">
          <mxGeometry x="226" y="621" width="120" height="50" as="geometry" />
        </mxCell>
        <mxCell id="l3ynQuDQ4SoGXIZrlIy3-8" value="UC05 - Solicitar plano de exercícios" style="ellipse;whiteSpace=wrap;html=1;" parent="1" vertex="1">
          <mxGeometry x="220.5" y="372" width="135" height="54" as="geometry" />
        </mxCell>
        <mxCell id="l3ynQuDQ4SoGXIZrlIy3-9" value="UC04 - Consultar plano de exercícios" style="ellipse;whiteSpace=wrap;html=1;" parent="1" vertex="1">
          <mxGeometry x="228" y="311" width="120" height="50" as="geometry" />
        </mxCell>
        <mxCell id="l3ynQuDQ4SoGXIZrlIy3-11" value="UC08 - Criar plano de exercícios" style="ellipse;whiteSpace=wrap;html=1;" parent="1" vertex="1">
          <mxGeometry x="228" y="558" width="120" height="56" as="geometry" />
        </mxCell>
        <mxCell id="l3ynQuDQ4SoGXIZrlIy3-14" style="rounded=0;orthogonalLoop=1;jettySize=auto;html=1;startArrow=none;startFill=0;endArrow=none;endFill=0;entryX=0;entryY=0.5;entryDx=0;entryDy=0;" parent="1" source="a8AoU_n1B9u0T8RcCwbD-1" target="l3ynQuDQ4SoGXIZrlIy3-9" edge="1">
          <mxGeometry relative="1" as="geometry">
            <mxPoint x="150" y="314" as="sourcePoint" />
            <mxPoint x="240" y="290" as="targetPoint" />
          </mxGeometry>
        </mxCell>
        <mxCell id="l3ynQuDQ4SoGXIZrlIy3-15" style="rounded=0;orthogonalLoop=1;jettySize=auto;html=1;startArrow=none;startFill=0;endArrow=none;endFill=0;entryX=0;entryY=0.5;entryDx=0;entryDy=0;" parent="1" source="a8AoU_n1B9u0T8RcCwbD-1" target="l3ynQuDQ4SoGXIZrlIy3-8" edge="1">
          <mxGeometry relative="1" as="geometry">
            <mxPoint x="150" y="340" as="sourcePoint" />
            <mxPoint x="240" y="473" as="targetPoint" />
          </mxGeometry>
        </mxCell>
        <mxCell id="l3ynQuDQ4SoGXIZrlIy3-20" value="UC06 - Agendar consulta" style="ellipse;whiteSpace=wrap;html=1;" parent="1" vertex="1">
          <mxGeometry x="228" y="436" width="120" height="50" as="geometry" />
        </mxCell>
        <mxCell id="l3ynQuDQ4SoGXIZrlIy3-21" value="UC07 - Consultar agenda" style="ellipse;whiteSpace=wrap;html=1;" parent="1" vertex="1">
          <mxGeometry x="228" y="496" width="120" height="50" as="geometry" />
        </mxCell>
        <mxCell id="l3ynQuDQ4SoGXIZrlIy3-27" value="InShape" style="shape=umlFrame;whiteSpace=wrap;html=1;pointerEvents=0;" parent="1" vertex="1">
          <mxGeometry x="129" y="96" width="325" height="593" as="geometry" />
        </mxCell>
        <mxCell id="9J8uIr4i5sgoY1Izh8wM-26" style="rounded=0;orthogonalLoop=1;jettySize=auto;html=1;entryX=1;entryY=0.5;entryDx=0;entryDy=0;endArrow=none;endFill=0;" edge="1" parent="1" source="9J8uIr4i5sgoY1Izh8wM-25" target="a8AoU_n1B9u0T8RcCwbD-11">
          <mxGeometry relative="1" as="geometry" />
        </mxCell>
        <mxCell id="9J8uIr4i5sgoY1Izh8wM-25" value="Supermercado" style="shape=umlActor;verticalLabelPosition=bottom;verticalAlign=top;html=1;outlineConnect=0;" vertex="1" parent="1">
          <mxGeometry x="523" y="274" width="30" height="60" as="geometry" />
        </mxCell>
      </root>
    </mxGraphModel>
  </diagram>
</mxfile>
